<?xml version="1.0" encoding="UTF-8"?>
<svg width="361px" height="379px" viewBox="0 0 361 379" version="1.1" xmlns="http://www.w3.org/2000/svg" xmlns:xlink="http://www.w3.org/1999/xlink">
    <!-- Generator: Sketch 57.1 (83088) - https://sketch.com -->
    <desc>Created with Sketch.</desc>
    <g id="Page-1" stroke="none" stroke-width="1" fill="none" fill-rule="evenodd">
        <path d="M0,7.49670363 C71.0341383,70.0499762 134.026795,98.103017 189.096543,91.1676448 C223.549068,86.8287636 245.455389,101.772242 242.028107,124.719689 C238.321004,149.540686 207.521653,176.33738 168.602705,193.688907 C127.806101,211.877564 109.647339,237.280116 115.130476,261.750588 C119.945056,283.237384 142.659317,297.281003 164.645618,292.083041 C187.395185,286.704629 204.412465,285.782401 220.682182,290.324759 C240.455541,295.845302 258.335718,309.700269 275.296377,334.344293 C301.413323,372.292505 330.232365,386.404712 361,375.33708 C361,373.190384 359.812811,370.198911 357.438434,366.362661 C355.064236,362.526411 352.574611,361.562237 349.969557,363.470137 C324.124453,372.767134 303.337447,364.797646 279.536985,330.215312 C261.318305,303.743368 245.542999,286.894061 223.368911,280.703257 C205.171443,275.622688 186.591961,276.629577 162.346861,282.361561 C145.7517,286.284959 122.96604,276.890725 119.317076,254.037331 C115.668112,231.183937 135.769226,219.264836 172.671129,202.812583 C214.456001,184.18332 242.704664,153.304871 246.973962,124.719689 C249.088774,110.55992 244.892908,98.1817625 234.741589,90.1259326 C224.252319,81.8019137 208.224612,78.6902536 187.848115,81.2564283 C136.15096,87.7670631 75.696355,60.8443141 6.60287286,0 L0,7.49670363 Z" id="Path-4-Copy" fill="#262C53" fill-rule="nonzero"></path>
    </g>
</svg>